<svg version="1.2" xmlns="http://www.w3.org/2000/svg" viewBox="0 0 1080 1080" width="1080" height="1080">
	<title>Cube Icon</title>
	<style>
		.s0 { opacity: 1;fill: #000000 } 
	</style>
	<path id="Path 0" fill-rule="evenodd" class="s0" d="m558.5 0.6c38.6 0.2 77 1 94.5 1.9 16.2 0.8 36.3 1.9 44.5 2.5 8.3 0.6 25.8 2 39 3.1 13.2 1.1 35.7 3.3 50 5 14.3 1.7 37.5 4.8 51.5 6.9 14 2.2 34 5.5 44.5 7.5 10.5 2 26.6 5.4 36 7.6 9.4 2.3 22 5.4 28 6.9 6 1.6 17.8 5 26 7.5 8.3 2.6 20.7 6.9 27.8 9.6 11.8 4.6 12.8 5.2 14.6 8.7 1 2 3.9 9.1 6.4 15.7 2.5 6.6 6.9 19.7 9.7 29 2.8 9.3 6.9 24.2 9.1 33 2.2 8.8 5.6 23 7.4 31.5 1.9 8.5 5 24.3 6.9 35 2 10.7 4.7 26.9 6 36 1.4 9.1 3.9 27.5 5.6 41 1.6 13.5 4.1 36.9 5.5 52 1.3 15.1 3.1 38.5 3.9 52 0.9 13.5 2.1 36 2.8 50 0.7 15.1 1.2 55.3 1.3 98.5 0 44.3-0.5 83.6-1.3 100-0.7 14.9-1.9 37.6-2.8 50.5-0.8 12.9-2.4 33.9-3.5 46.5-1.1 12.6-3.1 32.9-4.5 45-1.4 12.1-3.6 29.9-5 39.5-1.3 9.6-4 26.5-5.9 37.5-1.9 11-5.3 29-7.5 40-2.3 11-5.7 26.3-7.6 34-1.9 7.7-4.9 18.7-6.5 24.5-1.7 5.8-4.8 16.1-7.1 23-2.2 6.9-6.3 18.2-14.3 38.1l-12 4.3c-6.6 2.4-19.2 6.4-28 8.9-8.8 2.6-22.8 6.2-31 8.2-8.3 2-21.5 5-29.5 6.6-8 1.6-20.6 4-28 5.4-7.4 1.3-22.3 3.8-33 5.5-10.7 1.6-32.1 4.6-47.5 6.5-15.4 1.9-44.4 4.8-64.5 6.4-20.1 1.7-48.9 3.8-64 4.6-15.1 0.8-44.8 2-66 2.5-21.2 0.5-53.4 1-71.5 1-18.1 0-50.6-0.5-72-1-21.4-0.5-51.8-1.7-67.5-2.5-15.7-0.9-44.7-2.9-64.5-4.6-19.8-1.6-47.3-4.3-61-6-13.8-1.7-34-4.4-45-6-11-1.6-24.9-3.9-31-5-6.1-1.1-19.1-3.6-29-5.5-9.9-2-24.3-5.1-32-7-7.7-1.9-17.4-4.4-21.5-5.5-4.1-1.1-12.7-3.7-19-5.6-6.3-2-16.1-5.3-32-11.3l-4.9-12.8c-2.7-7-7.2-20.1-9.9-29.2-2.8-9.1-7-24.6-9.5-34.5-2.5-9.9-6.3-26.8-8.5-37.5-2.3-10.7-5.9-30.3-8.1-43.5-2.2-13.2-5.1-32.5-6.5-43-1.4-10.5-3.4-27.1-4.5-37-1.1-9.9-2.9-28.4-4-41-1.1-12.6-2.7-34.3-3.6-48-0.8-13.8-2-35.1-2.5-47.5-0.6-12.4-1.3-47.3-1.7-77.5-0.3-33.6-0.1-69.6 0.6-92.5 0.6-20.6 1.6-46.1 2.1-56.5 0.6-10.4 1.7-28.7 2.6-40.5 0.8-11.8 2.4-31.2 3.5-43 1.1-11.8 3.1-30.7 4.4-42 1.4-11.3 3.4-27 4.6-35 1.1-8 3.4-22.6 5-32.5 1.6-9.9 3.9-22.9 5-29 1.2-6.1 3.6-18.2 5.5-27 1.9-8.8 5.5-23.9 7.9-33.5 2.4-9.6 6.6-24.9 9.4-34 2.7-9.1 6.8-21.3 9-27.3 4.1-10.6 4.1-10.7 8.8-12.8 2.7-1.1 10.6-4 17.8-6.4 7.2-2.4 20.9-6.6 30.5-9.3 9.6-2.8 28.3-7.5 41.5-10.5 13.2-3.1 32.6-7.2 43-9.1 10.4-1.9 23.3-4.2 28.5-5 5.2-0.8 17.2-2.7 26.5-4.1 9.4-1.3 28.5-3.8 42.5-5.5 14-1.6 38.8-4.1 55-5.4 16.2-1.4 37.1-3 46.5-3.5 9.4-0.6 27.8-1.5 41-2.1 13.2-0.6 30.3-1.2 38-1.4 7.7-0.2 43.3-0.2 79 0zm-114 76.4c-14.9 0.6-34 1.5-42.5 2-8.5 0.6-26.5 1.9-40 3-13.5 1.2-34.6 3.2-47 4.6-12.4 1.4-31.7 3.8-43 5.5-11.3 1.6-29.7 4.5-41 6.4-11.3 2-29.1 5.4-39.5 7.7-10.4 2.2-25.8 5.7-34 7.8-8.3 2.1-19.4 5.1-24.8 6.7l-9.8 2.8c-3 10.1-5.8 20.9-8.3 30.5-2.5 9.6-6.1 24.9-8 34-1.9 9.1-5.1 25.5-7.1 36.5-1.9 11-4.9 29.1-6.5 40.3-1.7 11.1-4.1 29.8-5.5 41.5-1.3 11.6-3.1 28.6-3.9 37.7-0.9 9.1-2.3 25.7-3.1 37-0.8 11.3-1.9 29.1-2.5 39.5-0.5 10.4-1.5 35.4-2.1 55.5-0.7 22.6-0.9 57.6-0.5 92 0.3 30.5 1 65.2 1.6 77 0.5 11.8 1.4 29.6 2 39.5 0.6 9.9 2 29 3.1 42.5 1.1 13.5 3.1 34.6 4.4 47 1.4 12.4 3.7 30.6 5.1 40.5 1.4 9.9 3.9 26.1 5.5 36 1.7 9.9 4.5 25.4 6.4 34.5 1.8 9.1 4.7 22.6 6.4 30 1.7 7.4 5.2 20.7 7.7 29.5 2.5 8.8 5.1 16.3 5.7 16.7 0.7 0.4 8.2 2.5 16.7 4.7 8.5 2.2 21.8 5.4 29.5 7.1 7.7 1.7 22.1 4.6 32 6.5 9.9 1.8 25.4 4.5 34.5 5.9 9.1 1.4 25.5 3.7 36.5 5.1 11 1.3 29 3.4 40 4.5 11 1.1 28.3 2.6 38.5 3.4 10.2 0.9 31.8 2.2 48 3 16.2 0.9 45.7 2.1 65.5 2.7 22.8 0.7 58.1 0.9 96.5 0.6 33.3-0.4 70.9-1.1 83.5-1.7 12.6-0.5 30.6-1.4 40-2 9.4-0.6 25.5-1.7 36-2.6 10.5-0.8 26.2-2.1 35-3 8.8-0.8 28.6-3 44-4.9 15.4-1.9 38.9-5.3 52.3-7.5 13.3-2.2 32.2-5.6 42-7.6 9.7-1.9 26.7-5.8 37.7-8.6 11-2.8 21-5.2 22.3-5.4 1.8-0.3 2.7-1.9 5.2-10.2 1.6-5.3 4.5-15.6 6.4-22.7 1.9-7.1 5.2-21.1 7.4-31 2.3-9.9 5.2-24.1 6.6-31.5 1.4-7.4 3.9-21.8 5.5-32 1.6-10.2 4.1-27.3 5.5-38 1.4-10.7 3.5-28.3 4.6-39 1-10.7 2.8-31.4 3.9-46 1.2-14.6 2.5-35 3.1-45.5 0.5-10.5 1.5-36.1 2.1-57 0.7-23.3 0.9-58.7 0.6-91.5-0.4-29.4-1.1-63.4-1.7-75.5-0.5-12.1-1.5-29.6-2-39-0.6-9.4-1.7-25.8-2.6-36.5-0.8-10.7-2.6-30.1-4-43-1.4-12.9-3.6-31.8-5-42-1.3-10.2-4-27.7-5.9-39-1.9-11.3-5.2-29.3-7.4-40-2.2-10.7-6-27.4-8.4-37-2.4-9.6-6.1-23-8.3-29.8l-3.9-12.3c-12.4-3.9-23.6-7-33-9.4-9.4-2.5-24.2-6-33-7.9-8.8-1.9-23.6-4.8-33-6.6-9.4-1.7-27.8-4.6-41-6.5-13.2-1.9-31.6-4.3-41-5.4-9.4-1.1-30-3.2-46-4.5-16-1.4-37.3-3-47.5-3.6-10.2-0.5-28.2-1.5-40-2-11.8-0.6-50.3-1.2-85.5-1.4-35.2-0.2-68.5-0.2-74 0-5.5 0.2-22.1 0.8-37 1.4z"/>
</svg>